<svg width="3624" height="1074" viewBox="0 0 3624 1074" fill="none" xmlns="http://www.w3.org/2000/svg">
<rect y="706" width="310" height="310" rx="155" fill="#001F06"/>
<rect y="373" width="310" height="310" rx="155" fill="#99DB00"/>
<rect x="333" y="373" width="310" height="310" rx="155" fill="#001F06"/>
<rect x="333" y="706" width="310" height="310" rx="155" fill="#99DB00"/>
<rect x="666" y="706" width="310" height="310" rx="155" fill="#99DB00"/>
<rect x="666" y="373" width="310" height="310" rx="155" fill="#001F06"/>
<rect x="666" y="40" width="310" height="310" rx="155" fill="#99DB00"/>
<rect x="333" y="40" width="310" height="310" rx="155" fill="#99DB00"/>
<rect y="40" width="310" height="310" rx="155" fill="#001F06"/>
<path d="M1309.9 451.5C1277.83 451.5 1249.02 444.35 1223.45 430.05C1197.88 415.75 1177.73 396.25 1163 371.55C1148.27 346.85 1140.9 319.117 1140.9 288.35C1140.9 257.15 1148.27 229.2 1163 204.5C1177.73 179.8 1197.88 160.3 1223.45 146C1249.45 131.267 1278.27 123.9 1309.9 123.9C1334.6 123.9 1357.35 128.45 1378.15 137.55C1398.95 146.65 1416.93 159.65 1432.1 176.55L1377.5 231.8C1369.27 222.7 1359.3 215.767 1347.6 211C1336.33 206.233 1323.77 203.85 1309.9 203.85C1294.3 203.85 1280.22 207.533 1267.65 214.9C1255.52 221.833 1245.77 231.583 1238.4 244.15C1231.47 256.283 1228 270.8 1228 287.7C1228 304.167 1231.47 318.9 1238.4 331.9C1245.77 344.467 1255.52 354.433 1267.65 361.8C1280.22 368.733 1294.3 372.2 1309.9 372.2C1324.2 372.2 1336.98 369.817 1348.25 365.05C1359.95 359.85 1369.92 352.483 1378.15 342.95L1433.4 398.2C1417.37 415.533 1398.95 428.75 1378.15 437.85C1357.35 446.95 1334.6 451.5 1309.9 451.5ZM1605.94 451.5C1577.34 451.5 1551.56 444.35 1528.59 430.05C1505.62 415.75 1487.64 396.25 1474.64 371.55C1461.64 346.85 1455.14 319.117 1455.14 288.35C1455.14 257.15 1461.64 229.2 1474.64 204.5C1487.64 179.8 1505.62 160.3 1528.59 146C1551.56 131.7 1577.34 124.55 1605.94 124.55C1628.47 124.55 1648.62 129.1 1666.39 138.2C1684.16 147.3 1698.24 160.083 1708.64 176.55C1719.47 192.583 1725.32 210.783 1726.19 231.15V344.25C1725.32 365.05 1719.47 383.467 1708.64 399.5C1698.24 415.533 1684.16 428.317 1666.39 437.85C1648.62 446.95 1628.47 451.5 1605.94 451.5ZM1621.54 372.85C1645.37 372.85 1664.66 365.05 1679.39 349.45C1694.12 333.417 1701.49 312.833 1701.49 287.7C1701.49 271.233 1698.02 256.717 1691.09 244.15C1684.59 231.15 1675.27 221.183 1663.14 214.25C1651.44 206.883 1637.57 203.2 1621.54 203.2C1605.94 203.2 1592.07 206.883 1579.94 214.25C1568.24 221.183 1558.92 231.15 1551.99 244.15C1545.49 256.717 1542.24 271.233 1542.24 287.7C1542.24 304.6 1545.49 319.55 1551.99 332.55C1558.92 345.117 1568.24 355.083 1579.94 362.45C1592.07 369.383 1605.94 372.85 1621.54 372.85ZM1696.94 445V360.5L1710.59 283.8L1696.94 208.4V131.05H1781.44V445H1696.94ZM2030.97 451.5C2008.44 451.5 1988.07 446.95 1969.87 437.85C1951.67 428.317 1937.15 415.533 1926.32 399.5C1915.49 383.467 1909.64 365.05 1908.77 344.25V233.1C1909.64 212.3 1915.49 193.883 1926.32 177.85C1937.59 161.383 1952.1 148.383 1969.87 138.85C1988.07 129.317 2008.44 124.55 2030.97 124.55C2060 124.55 2086 131.7 2108.97 146C2131.94 160.3 2149.92 179.8 2162.92 204.5C2176.35 229.2 2183.07 257.15 2183.07 288.35C2183.07 319.117 2176.35 346.85 2162.92 371.55C2149.92 396.25 2131.94 415.75 2108.97 430.05C2086 444.35 2060 451.5 2030.97 451.5ZM1856.77 576.3V131.05H1941.92V213.6L1927.62 289.65L1941.27 365.7V576.3H1856.77ZM2016.02 372.85C2031.62 372.85 2045.49 369.383 2057.62 362.45C2069.75 355.083 2079.07 345.117 2085.57 332.55C2092.5 319.55 2095.97 304.6 2095.97 287.7C2095.97 271.233 2092.5 256.717 2085.57 244.15C2079.07 231.15 2069.75 221.183 2057.62 214.25C2045.49 206.883 2031.62 203.2 2016.02 203.2C2000.85 203.2 1987.2 206.883 1975.07 214.25C1962.94 221.183 1953.4 231.15 1946.47 244.15C1939.97 256.717 1936.72 271.233 1936.72 287.7C1936.72 304.6 1939.97 319.55 1946.47 332.55C1953.4 345.117 1962.72 355.083 1974.42 362.45C1986.55 369.383 2000.42 372.85 2016.02 372.85ZM2277.43 445V0.39999H2362.58V445H2277.43ZM2203.98 205.8V131.05H2436.03V205.8H2203.98ZM2617.82 451.5C2590.08 451.5 2565.38 445.65 2543.72 433.95C2522.48 422.25 2505.8 406 2493.67 385.2C2481.53 364.4 2475.47 340.35 2475.47 313.05V131.05H2561.27V311.1C2561.27 324.1 2563.43 335.367 2567.77 344.9C2572.1 354 2578.6 360.933 2587.27 365.7C2595.93 370.467 2606.12 372.85 2617.82 372.85C2635.58 372.85 2649.45 367.433 2659.42 356.6C2669.38 345.767 2674.37 330.6 2674.37 311.1V131.05H2759.52V313.05C2759.52 340.783 2753.45 365.05 2741.32 385.85C2729.62 406.65 2712.93 422.9 2691.27 434.6C2670.03 445.867 2645.55 451.5 2617.82 451.5ZM2827.33 445V131.05H2912.48V445H2827.33ZM2912.48 271.45L2879.33 249.35C2883.23 210.783 2894.49 180.45 2913.13 158.35C2931.76 135.817 2958.63 124.55 2993.73 124.55C3008.89 124.55 3022.54 127.15 3034.68 132.35C3046.81 137.117 3057.86 145.133 3067.83 156.4L3014.53 217.5C3009.76 212.3 3003.91 208.4 2996.98 205.8C2990.48 203.2 2982.89 201.9 2974.23 201.9C2956.03 201.9 2941.08 207.75 2929.38 219.45C2918.11 230.717 2912.48 248.05 2912.48 271.45ZM3239 451.5C3206.07 451.5 3176.82 444.567 3151.25 430.7C3125.68 416.4 3105.32 396.9 3090.15 372.2C3075.42 347.5 3068.05 319.333 3068.05 287.7C3068.05 256.5 3075.2 228.767 3089.5 204.5C3104.23 179.8 3124.17 160.3 3149.3 146C3174.43 131.267 3202.38 123.9 3233.15 123.9C3263.48 123.9 3290.13 130.833 3313.1 144.7C3336.5 158.133 3354.7 176.767 3367.7 200.6C3381.13 224 3387.85 250.65 3387.85 280.55C3387.85 286.183 3387.42 292.033 3386.55 298.1C3386.12 303.733 3385.03 310.233 3383.3 317.6L3119.4 318.25V254.55L3343.65 253.9L3309.2 280.55C3308.33 261.917 3304.87 246.317 3298.8 233.75C3293.17 221.183 3284.72 211.65 3273.45 205.15C3262.62 198.217 3249.18 194.75 3233.15 194.75C3216.25 194.75 3201.52 198.65 3188.95 206.45C3176.38 213.817 3166.63 224.433 3159.7 238.3C3153.2 251.733 3149.95 267.767 3149.95 286.4C3149.95 305.467 3153.42 322.15 3160.35 336.45C3167.72 350.317 3178.12 361.15 3191.55 368.95C3204.98 376.317 3220.58 380 3238.35 380C3254.38 380 3268.9 377.4 3281.9 372.2C3294.9 366.567 3306.17 358.333 3315.7 347.5L3365.75 397.55C3350.58 415.317 3331.95 428.75 3309.85 437.85C3288.18 446.95 3264.57 451.5 3239 451.5Z" fill="#001F06"/>
<path d="M1311.85 945.287C1281.95 945.287 1254.87 938.354 1230.6 924.487C1206.77 910.62 1187.92 891.77 1174.05 867.937C1160.18 844.104 1153.25 817.237 1153.25 787.337C1153.25 757.437 1159.97 730.787 1173.4 707.387C1186.83 683.554 1205.25 664.704 1228.65 650.837C1252.48 636.97 1278.92 630.037 1307.95 630.037C1335.68 630.037 1359.95 636.32 1380.75 648.887C1401.98 661.02 1418.45 677.92 1430.15 699.587C1442.28 721.254 1448.35 746.17 1448.35 774.337C1448.35 776.937 1448.13 780.404 1447.7 784.737C1447.27 788.637 1446.62 793.62 1445.75 799.687H1176.65V771.087H1426.9L1415.85 780.187C1416.72 756.354 1412.82 735.554 1404.15 717.787C1395.48 699.587 1382.92 685.504 1366.45 675.537C1349.98 665.57 1330.27 660.587 1307.3 660.587C1283.47 660.587 1262.45 666.004 1244.25 676.837C1226.05 687.237 1211.75 701.754 1201.35 720.387C1191.38 739.02 1186.4 760.687 1186.4 785.387C1186.4 811.387 1191.6 834.137 1202 853.637C1212.83 872.704 1227.78 887.654 1246.85 898.487C1265.92 908.887 1288.23 914.087 1313.8 914.087C1333.3 914.087 1351.28 910.62 1367.75 903.687C1384.65 896.32 1398.73 885.487 1410 871.187L1432.1 892.637C1418.23 909.104 1400.68 922.104 1379.45 931.637C1358.65 940.737 1336.12 945.287 1311.85 945.287ZM1751.28 938.787V759.387C1751.28 729.92 1742.61 706.087 1725.28 687.887C1707.94 669.687 1684.98 660.587 1656.38 660.587C1636.88 660.587 1619.54 664.92 1604.38 673.587C1589.64 681.82 1577.94 693.304 1569.28 708.037C1561.04 722.77 1556.93 739.887 1556.93 759.387L1540.03 749.637C1540.03 726.67 1545.44 706.304 1556.28 688.537C1567.11 670.337 1581.84 656.037 1600.48 645.637C1619.11 635.237 1640.34 630.037 1664.18 630.037C1688.01 630.037 1708.81 635.67 1726.58 646.937C1744.78 657.77 1758.86 672.72 1768.83 691.787C1778.79 710.854 1783.78 732.087 1783.78 755.487V938.787H1751.28ZM1523.78 938.787V636.537H1556.93V938.787H1523.78ZM2014.54 945.287C1984.64 945.287 1957.55 938.354 1933.29 924.487C1909.45 910.62 1890.6 891.77 1876.74 867.937C1862.87 844.104 1855.94 817.237 1855.94 787.337C1855.94 757.437 1862.65 730.787 1876.09 707.387C1889.52 683.554 1907.94 664.704 1931.34 650.837C1955.17 636.97 1981.6 630.037 2010.64 630.037C2038.37 630.037 2062.64 636.32 2083.44 648.887C2104.67 661.02 2121.14 677.92 2132.84 699.587C2144.97 721.254 2151.04 746.17 2151.04 774.337C2151.04 776.937 2150.82 780.404 2150.39 784.737C2149.95 788.637 2149.3 793.62 2148.44 799.687H1879.34V771.087H2129.59L2118.54 780.187C2119.4 756.354 2115.5 735.554 2106.84 717.787C2098.17 699.587 2085.6 685.504 2069.14 675.537C2052.67 665.57 2032.95 660.587 2009.99 660.587C1986.15 660.587 1965.14 666.004 1946.94 676.837C1928.74 687.237 1914.44 701.754 1904.04 720.387C1894.07 739.02 1889.09 760.687 1889.09 785.387C1889.09 811.387 1894.29 834.137 1904.69 853.637C1915.52 872.704 1930.47 887.654 1949.54 898.487C1968.6 908.887 1990.92 914.087 2016.49 914.087C2035.99 914.087 2053.97 910.62 2070.44 903.687C2087.34 896.32 2101.42 885.487 2112.69 871.187L2134.79 892.637C2120.92 909.104 2103.37 922.104 2082.14 931.637C2061.34 940.737 2038.8 945.287 2014.54 945.287ZM2226.46 938.787V636.537H2259.61V938.787H2226.46ZM2259.61 758.087L2243.36 752.237C2243.36 713.67 2253.11 683.77 2272.61 662.537C2292.11 640.87 2317.68 630.037 2349.31 630.037C2364.04 630.037 2377.69 632.637 2390.26 637.837C2403.26 643.037 2415.18 651.487 2426.01 663.187L2403.91 686.587C2395.68 677.487 2386.79 670.987 2377.26 667.087C2367.73 663.187 2356.46 661.237 2343.46 661.237C2318.76 661.237 2298.61 669.687 2283.01 686.587C2267.41 703.054 2259.61 726.887 2259.61 758.087ZM2593.74 1073.34C2564.27 1073.34 2537.62 1067.7 2513.79 1056.44C2489.96 1045.6 2470.89 1029.79 2456.59 1008.99L2477.39 988.187C2489.09 1004.65 2504.91 1017.65 2524.84 1027.19C2544.77 1037.15 2567.96 1042.14 2594.39 1042.14C2632.96 1042.14 2663.29 1031.74 2685.39 1010.94C2707.92 990.137 2719.19 962.187 2719.19 927.087V851.037L2726.99 780.837L2719.19 712.587V636.537H2752.34V927.087C2752.34 956.554 2745.62 982.12 2732.19 1003.79C2719.19 1025.45 2700.77 1042.35 2676.94 1054.49C2653.11 1067.05 2625.37 1073.34 2593.74 1073.34ZM2600.24 936.837C2571.64 936.837 2545.86 930.337 2522.89 917.337C2500.36 903.904 2482.59 885.704 2469.59 862.737C2456.59 839.337 2450.09 812.904 2450.09 783.437C2450.09 754.404 2456.59 728.404 2469.59 705.437C2482.59 682.037 2500.36 663.62 2522.89 650.187C2545.42 636.754 2570.99 630.037 2599.59 630.037C2622.99 630.037 2644.01 634.587 2662.64 643.687C2681.27 652.354 2696.66 664.704 2708.79 680.737C2721.36 696.77 2729.37 715.837 2732.84 737.937V829.587C2728.94 851.254 2720.71 870.32 2708.14 886.787C2696.01 902.82 2680.62 915.17 2661.99 923.837C2643.79 932.504 2623.21 936.837 2600.24 936.837ZM2606.09 906.287C2628.62 906.287 2648.56 901.304 2665.89 891.337C2683.66 880.937 2697.31 866.637 2706.84 848.437C2716.37 829.804 2721.14 808.137 2721.14 783.437C2721.14 759.17 2716.16 737.937 2706.19 719.737C2696.66 701.537 2683.22 687.237 2665.89 676.837C2648.56 666.437 2628.19 661.237 2604.79 661.237C2581.39 661.237 2560.59 666.437 2542.39 676.837C2524.19 687.237 2509.89 701.537 2499.49 719.737C2489.09 737.937 2483.89 758.954 2483.89 782.787C2483.89 806.62 2489.09 827.854 2499.49 846.487C2509.89 865.12 2524.19 879.854 2542.39 890.687C2561.02 901.087 2582.26 906.287 2606.09 906.287ZM2953.15 939.437L2818.6 636.537H2855L2971.35 904.987H2954.45L3076 636.537H3112.4L2970.05 939.437H2953.15ZM2874.5 1066.84L2952.5 906.937L2970.05 939.437L2910.25 1066.84H2874.5Z" fill="#001F06"/>
</svg>
